<?xml version="1.0" encoding="utf-8"?>
<!-- Generator: Adobe Illustrator 22.0.0, SVG Export Plug-In . SVG Version: 6.00 Build 0)  -->
<svg version="1.1" id="Capa_1" xmlns="http://www.w3.org/2000/svg" xmlns:xlink="http://www.w3.org/1999/xlink" x="0px" y="0px"
	 viewBox="0 0 40 40" style="enable-background:new 0 0 40 40;" xml:space="preserve">
<style type="text/css">
	.st0{fill:none;stroke:#FFFFFF;stroke-width:2;stroke-miterlimit:10;}
</style>
<g>
	<g>
		<path class="st0" d="M28.3,13.2H33V7.4h-4.7c-3.9,0-7.1,3.4-7.1,7.7v3h-4.7v5.9h4.7v14.2h5.9V23.9H33V18h-5.9v-3
			C27.1,14,27.7,13.2,28.3,13.2z"/>
	</g>
	<g>
		<g>
			<path class="st0" d="M31.9,2.2H8c-3.3,0-6,2.7-6,6v23.9c0,3.3,2.7,6,6,6h23.9c3.3,0,6-2.7,6-6V8.2C37.9,4.9,35.2,2.2,31.9,2.2
				L31.9,2.2z"/>
		</g>
	</g>
</g>
</svg>
