<?xml version="1.0" encoding="utf-8"?>
<!-- Generator: Adobe Illustrator 22.0.0, SVG Export Plug-In . SVG Version: 6.00 Build 0)  -->
<svg version="1.1" xmlns="http://www.w3.org/2000/svg" xmlns:xlink="http://www.w3.org/1999/xlink" x="0px" y="0px"
	 viewBox="0 0 40 40" style="enable-background:new 0 0 40 40;" xml:space="preserve">
<style type="text/css">
	.st0{display:none;}
	.st1{display:inline;}
	.st2{fill:none;stroke:#FFFFFF;stroke-width:2;stroke-miterlimit:10;}
	.st3{display:inline;fill:#353F4E;}
	.st4{fill:none;stroke:#009540;stroke-width:2;stroke-miterlimit:10;}
	.st5{display:inline;fill:#FFFFFF;}
</style>
<g id="Capa_1" class="st0">
	<g class="st1">
		<g>
			<path class="st2" d="M28.3,13.2H33V7.4h-4.7c-3.9,0-7.1,3.4-7.1,7.7v3h-4.7v5.9h4.7v14.2h5.9V23.9H33V18h-5.9v-3
				C27.1,14,27.7,13.2,28.3,13.2z"/>
		</g>
		<g>
			<g>
				<path class="st2" d="M31.9,2.2H8c-3.3,0-6,2.7-6,6v23.9c0,3.3,2.7,6,6,6h23.9c3.3,0,6-2.7,6-6V8.2C37.9,4.9,35.2,2.2,31.9,2.2
					L31.9,2.2z"/>
			</g>
		</g>
	</g>
	<rect x="-0.2" y="0.1" class="st3" width="40.2" height="39.9"/>
</g>
<g id="Capa_3">
</g>
<g id="Capa_2" class="st0">
	<g class="st1">
		<g>
			<g>
				<g>
					<g>
						<path class="st4" d="M31.9,2.3H8c-3.3,0-6,2.7-6,6V32c0,3.3,2.7,6,6,6h23.8c3.3,0,6-2.7,6-6V8.2C37.8,4.9,35.1,2.3,31.9,2.3
							L31.9,2.3z"/>
					</g>
				</g>
			</g>
			<circle class="st4" cx="31.6" cy="8.5" r="2.8"/>
		</g>
		<path class="st4" d="M7.5,2.3"/>
		<path class="st4" d="M8.6,2.3"/>
		<path class="st4" d="M9.7,2.3"/>
		<path class="st4" d="M9.7,14.9"/>
		<path class="st4" d="M10.8,2.3"/>
		<path class="st4" d="M10.8,14.9"/>
		<path class="st4" d="M11.9,2.3"/>
		<path class="st4" d="M11.9,16.1"/>
		<g>
			<path class="st4" d="M29.1,20.5c0,4.9-4,8.9-8.9,8.9c-4.9,0-8.9-4-8.9-8.9s4-8.9,8.9-8.9C25.1,11.6,29.1,15.6,29.1,20.5z"/>
		</g>
		<g>
			<g>
				<path class="st4" d="M24,20.5c0,2.2-1.8,3.9-3.9,3.9c-2.2,0-3.9-1.8-3.9-3.9s1.8-3.9,3.9-3.9C22.3,16.6,24,18.3,24,20.5z"/>
			</g>
		</g>
	</g>
</g>
<g id="Capa_4" class="st0">
	<g class="st1">
		<g>
			<g>
				<g>
					<g>
						<path class="st2" d="M32,2.1H8.1c-3.3,0-6,2.7-6,6v23.9c0,3.3,2.7,6,6,6H32c3.3,0,6-2.7,6-6V8.1C38,4.8,35.3,2.1,32,2.1
							L32,2.1z"/>
					</g>
				</g>
			</g>
		</g>
		<path class="st2" d="M7.6,2.1"/>
		<path class="st2" d="M8.7,2.1"/>
		<path class="st2" d="M9.8,2.1"/>
		<path class="st2" d="M10.9,2.1"/>
		<path class="st2" d="M12,2.1"/>
	</g>
	<polyline class="st5" points="17.3,13.5 23.8,20 17.3,26.5 	"/>
</g>
<g id="Capa_5">
	<g>
		<g>
			<path class="st4" d="M28.4,13.1h4.8V7.2h-4.8c-3.9,0-7.1,3.5-7.1,7.7v3h-4.8v5.9h4.8v14.3h5.9V23.8h5.9v-5.9h-5.9v-3
				C27.2,13.8,27.9,13.1,28.4,13.1z"/>
		</g>
		<g>
			<g>
				<path class="st4" d="M32.1,2H8C4.7,2,2,4.7,2,8v24.1c0,3.3,2.7,6,6,6h24.1c3.3,0,6-2.7,6-6V8C38.1,4.7,35.4,2,32.1,2L32.1,2z"/>
			</g>
		</g>
	</g>
</g>
</svg>
