<?xml version="1.0" encoding="utf-8"?>
<!-- Generator: Adobe Illustrator 22.0.0, SVG Export Plug-In . SVG Version: 6.00 Build 0)  -->
<svg version="1.1" id="Capa_1" xmlns="http://www.w3.org/2000/svg" xmlns:xlink="http://www.w3.org/1999/xlink" x="0px" y="0px"
	 viewBox="0 0 120 40" style="enable-background:new 0 0 120 40;" xml:space="preserve">
<style type="text/css">
	.st0{fill:#009540;}
</style>
<g>
	<g>
		<g>
			<path class="st0" d="M107,27.8c1.3,0,2.3,0.9,2.3,2.1c0,1.2-1,2.2-2.3,2.2c-1.3,0-2.3-1-2.3-2.2C104.7,28.7,105.7,27.8,107,27.8
				L107,27.8z M106.9,28.2c-1,0-1.7,0.8-1.7,1.7c0,1,0.8,1.7,1.8,1.7c1,0,1.7-0.8,1.7-1.7C108.7,29,107.9,28.2,106.9,28.2
				L106.9,28.2z M106.6,31.1h-0.5v-2.1c0.2,0,0.5-0.1,0.9-0.1c0.4,0,0.6,0.1,0.8,0.2c0.1,0.1,0.2,0.2,0.2,0.5c0,0.3-0.2,0.4-0.5,0.5
				v0c0.2,0.1,0.3,0.2,0.4,0.5c0.1,0.3,0.1,0.4,0.2,0.5h-0.5c-0.1-0.1-0.1-0.3-0.2-0.5c0-0.2-0.2-0.3-0.5-0.3h-0.2V31.1z
				 M106.6,29.9h0.2c0.3,0,0.5-0.1,0.5-0.3c0-0.2-0.1-0.3-0.5-0.3c-0.1,0-0.2,0-0.3,0V29.9z"/>
		</g>
		<g>
			<polygon class="st0" points="32.1,6.6 23.4,6.6 16.4,14.5 16.4,6.6 9.8,6.6 9.8,27.6 16.4,27.6 16.4,22.4 19.8,18.9 24.4,27.6 
				32.5,27.6 24.4,14.5 			"/>
			<path class="st0" d="M60.7,23.8c-0.5,0-0.8-0.2-1-0.5c-0.1-0.2-0.2-0.6-0.2-1.3v-5.4h3.3v-4.2h-3.3V6.6l-5.9,3v2.8h-2.2v4.2h2.2
				V22c0,1.7,0.2,2.9,0.5,3.7c0.3,0.8,0.9,1.3,1.6,1.7c0.7,0.4,1.8,0.6,3.3,0.6c1.3,0,2.6-0.2,4.1-0.5l-0.4-4
				C61.7,23.7,61.1,23.8,60.7,23.8z"/>
			<path class="st0" d="M50,24.3v-6.7c0-0.7-0.1-1.5-0.4-2.2c-0.3-0.8-0.7-1.4-1.2-1.8c-0.7-0.6-1.6-1-2.7-1.2
				c-1.1-0.2-2.4-0.3-4.1-0.3h-0.1c-1.1,0-2.1,0.1-3.1,0.2c-0.9,0.2-1.7,0.4-2.2,0.7c-0.8,0.4-1.3,0.9-1.7,1.4
				c-0.4,0.6-0.7,1.3-0.9,2.3l5.7,0.6c0.2-0.7,0.5-1.1,0.9-1.3c0.4-0.2,0.9-0.4,1.6-0.4c0.2,0,0.4,0,0.6,0c0.8,0,1.3,0.1,1.6,0.4
				c0.3,0.3,0.4,0.8,0.4,1.5c-0.7,0.3-1.4,0.5-2.1,0.7c-0.1,0-0.3,0.1-0.6,0.1c-0.8,0.2-2,0.4-3.8,0.8c-1.9,0.4-3.1,0.9-3.8,1.7
				c-0.7,0.7-1,1.7-1,2.8c0,1.2,0.5,2.3,1.4,3.1c1,0.8,2.4,1.3,4.2,1.3c1.1,0,2.1-0.1,3-0.4c0.2-0.1,0.5-0.2,0.7-0.2
				c0.8-0.3,1.5-0.8,2.3-1.6c0.1,0.4,0.1,0.8,0.2,1c0.1,0.2,0.2,0.5,0.4,0.9h5.6c-0.3-0.6-0.5-1.1-0.6-1.6C50,25.6,50,25,50,24.3z
				 M44.2,21.3c0,0.7-0.1,1.3-0.4,1.8c-0.2,0.4-0.6,0.8-1.2,1.1c-0.3,0.2-0.7,0.3-1.1,0.4c-0.2,0-0.5,0.1-0.7,0.1
				c-0.6,0-1.1-0.1-1.4-0.4c-0.3-0.3-0.5-0.7-0.5-1.1c0-0.4,0.2-0.8,0.5-1.1c0.3-0.3,1-0.6,2.2-0.9c0,0,0.1,0,0.1,0
				c0.9-0.2,1.7-0.5,2.5-0.8V21.3z"/>
			<g>
				<rect x="97.6" y="12.4" class="st0" width="5.9" height="15.2"/>
				<rect x="97.6" y="6.6" class="st0" width="5.9" height="4"/>
			</g>
			<path class="st0" d="M91.4,12.7c-0.6,0.4-1.1,1.1-1.7,2.2v-2.5h-5.6v15.2h6v-5.1c0-2.4,0.3-4.1,0.9-5c0.4-0.6,1-0.9,1.8-0.9
				c0.4,0,1,0.1,1.7,0.4l1.8-4.1c-1-0.5-2-0.8-2.9-0.8C92.7,12,92,12.3,91.4,12.7z"/>
			<path class="st0" d="M73,12L73,12c-2.8,0-4.9,0.7-6.5,2.3c-1.6,1.5-2.4,3.4-2.4,5.7c0,2.5,0.9,4.5,2.8,6c1.5,1.2,3.6,1.9,6,1.9h0
				c2.8,0,5-0.7,6.5-2.2c1.6-1.5,2.4-3.4,2.4-5.7c0-2.1-0.6-3.8-1.9-5.2C78.5,12.9,76.1,12.1,73,12z M75.2,23c-0.6,0.6-1.3,1-2.1,1
				h0c-0.8,0-1.5-0.3-2.1-1c-0.6-0.6-0.9-1.6-0.9-3c0-1.3,0.3-2.3,0.9-3c0.6-0.6,1.3-1,2.1-1h0.1c0.8,0,1.5,0.3,2.1,1
				c0.6,0.6,0.8,1.6,0.8,2.9C76,21.4,75.7,22.4,75.2,23z"/>
		</g>
		<path class="st0" d="M59.9,6.6c0,0,7.3-3.9,18.6-0.6c11.3,3.3,18-0.6,18-0.6S76.7-3.1,59.9,6.6z M78.4,5.3
			c-1.3-0.3-2.5-0.8-3.7-1.2c2.4,0.5,5,0.9,7.6,1.1c4.4,0.4,8.4,0.3,11.7-0.3C90.5,6.7,84.5,6.9,78.4,5.3z"/>
	</g>
	<g>
		<path class="st0" d="M14.4,37.1c-0.4,0.1-0.9,0.2-1.5,0.2c-2.9,0-3.4-1.7-3.4-2.9c0-1.1,0.5-2.9,3.4-2.9c2.9,0,3.4,1.7,3.4,2.9
			c0,0.7-0.2,1.5-0.9,2.1l0.8,0.7L15.4,38L14.4,37.1z M13,35.8l0.7-0.7l0.6,0.6c0.3-0.4,0.4-0.8,0.4-1.2c0-0.8-0.5-1.8-1.8-1.8
			c-1.3,0-1.8,1-1.8,1.8c0,0.8,0.5,1.8,1.8,1.8c0.2,0,0.4,0,0.5-0.1L13,35.8z"/>
		<path class="st0" d="M20.7,36.6L20.7,36.6c-0.3,0.3-0.9,0.7-1.7,0.7c-0.7,0-1.7-0.3-1.7-1.5v-2.8h1.3v2.4c0,0.6,0.3,0.8,0.9,0.8
			c0.7,0,1.1-0.4,1.1-1.2v-2H22v4.1h-1.3V36.6z"/>
		<g>
			<path class="st0" d="M23.8,31.5h1.6l-1.1,1.1h-1.2L23.8,31.5z M23.3,33.1h1.3v4.1h-1.3V33.1z"/>
			<path class="st0" d="M32.3,34.7c0-0.5-0.4-0.7-0.8-0.7c-0.6,0-1,0.3-1,0.9v2.2h-1.3v-2.5c0-0.5-0.4-0.7-0.8-0.7
				c-0.6,0-1,0.3-1,0.9v2.2h-1.3v-4.1h1.3v0.6h0c0.2-0.3,0.9-0.7,1.7-0.7c0.8,0,1.2,0.3,1.4,0.8c0.4-0.5,0.9-0.8,1.7-0.8
				c0.8,0,1.6,0.3,1.6,1.4v2.8h-1.3V34.7z"/>
			<path class="st0" d="M34.9,31.6h1.3v0.9h-1.3V31.6z M34.9,33.1h1.3v4.1h-1.3V33.1z"/>
			<path class="st0" d="M41.2,34.6c-0.2-0.5-0.6-0.7-1.1-0.7c-0.8,0-1.3,0.4-1.3,1.2c0,0.8,0.5,1.2,1.3,1.2c0.6,0,1-0.3,1.1-0.8h1.4
				c-0.2,1.4-1.3,1.8-2.6,1.8c-1.5,0-2.6-0.7-2.6-2.2c0-1.5,1.1-2.2,2.7-2.2c1,0,2.2,0.3,2.5,1.7H41.2z"/>
			<path class="st0" d="M43.6,34.3c0.2-1.3,1.3-1.4,2.4-1.4c1.9,0,2.3,0.6,2.3,1.4v2c0,0.4,0.1,0.6,0.2,0.8h-1.3
				c0-0.1-0.1-0.3-0.1-0.4c-0.5,0.5-1.3,0.6-1.9,0.6c-1.1,0-1.8-0.4-1.8-1.3c0-1,0.9-1.2,1.7-1.3l1.4-0.1c0.4,0,0.5-0.1,0.5-0.4
				c0-0.3-0.3-0.5-1-0.5c-0.6,0-0.9,0-1.1,0.6H43.6z M47,35.2c-0.3,0.1-0.5,0.2-0.8,0.2l-0.8,0.1c-0.5,0-0.7,0.2-0.7,0.5
				c0,0.4,0.3,0.6,0.8,0.6c0.7,0,1.4-0.3,1.4-1V35.2z"/>
			<path class="st0" d="M54,35.5c0.1,0.4,0.4,0.7,1.3,0.7c0.8,0,1.2-0.2,1.2-0.6c0-0.3-0.1-0.4-1-0.5L54,34.9
				c-1.1-0.1-1.7-0.5-1.7-1.5c0-1.4,1.4-1.8,2.9-1.8c2.4,0,3,0.8,3.1,1.8h-1.9c-0.1-0.5-0.7-0.7-1.2-0.7c-0.4,0-1.1,0-1.1,0.6
				c0,0.2,0.1,0.4,0.9,0.5l1.2,0.1c1.7,0.2,2.3,0.7,2.3,1.6c0,1.5-1.7,1.8-3.2,1.8c-2,0-3-0.6-3.1-1.8H54z"/>
			<path class="st0" d="M61.9,32.9c1.6,0,2.7,0.7,2.7,2.2c0,1.5-1.1,2.2-2.7,2.2c-1.6,0-2.7-0.7-2.7-2.2
				C59.2,33.6,60.2,32.9,61.9,32.9z M61.9,36.4c0.8,0,1.3-0.4,1.3-1.2c0-0.8-0.5-1.2-1.3-1.2c-0.8,0-1.3,0.4-1.3,1.2
				C60.5,35.9,61,36.4,61.9,36.4z"/>
			<path class="st0" d="M66.9,35.9c0.1,0.4,0.3,0.6,1,0.6c0.6,0,1-0.1,1-0.4c0-0.2-0.1-0.3-0.8-0.4l-1.2-0.2
				c-0.9-0.1-1.3-0.4-1.3-1.2c0-1.1,1.1-1.4,2.2-1.4c1.9,0,2.3,0.6,2.4,1.4h-1.5c-0.1-0.4-0.5-0.5-0.9-0.5c-0.4,0-0.9,0-0.9,0.4
				c0,0.2,0.1,0.3,0.7,0.4l0.9,0.1c1.4,0.1,1.8,0.5,1.8,1.3c0,1.2-1.4,1.4-2.5,1.4c-1.5,0-2.3-0.4-2.4-1.4H66.9z"/>
			<path class="st0" d="M71.8,31.8h1.3v1.3h1.1V34h-1.1v1.9c0,0.3,0.1,0.4,0.4,0.4c0.2,0,0.4,0,0.7,0v0.9c-0.3,0-0.8,0.1-1,0.1
				c-1.3,0-1.4-0.5-1.4-1.2V34H71v-0.9h0.8V31.8z"/>
			<path class="st0" d="M80.2,35.9c-0.4,1-1.3,1.4-2.5,1.4c-1.6,0-2.7-0.7-2.7-2.2c0-1.5,1.1-2.2,2.7-2.2c1.8,0,2.6,0.9,2.6,2.4v0.1
				h-3.9v0c0,0.4,0.4,1,1.3,1c0.5,0,0.9-0.2,1.1-0.5H80.2z M78.8,34.7L78.8,34.7c0-0.2-0.3-0.9-1.3-0.9c-1.1,0-1.3,0.8-1.3,0.9v0
				H78.8z"/>
			<path class="st0" d="M84.7,34.8c0-0.6-0.3-0.8-0.9-0.8c-0.6,0-1.1,0.3-1.1,1.2v2h-1.3v-4.1h1.3v0.6h0c0.2-0.3,0.9-0.7,1.7-0.7
				c0.7,0,1.7,0.3,1.7,1.5v2.7h-1.3V34.8z"/>
			<path class="st0" d="M87.3,31.6h1.3v0.9h-1.3V31.6z M87.3,33.1h1.3v4.1h-1.3V33.1z"/>
			<path class="st0" d="M89.9,31.6h1.3v1.9h0c0.3-0.4,0.8-0.6,1.6-0.6c1.3,0,2.3,0.9,2.3,2.2c0,1.4-1,2.1-2.4,2.1
				c-0.6,0-1-0.1-1.5-0.7h0v0.5h-1.3V31.6z M92.5,36.3c0.7,0,1.3-0.4,1.3-1.2c0-0.8-0.6-1.2-1.3-1.2c-0.7,0-1.3,0.4-1.3,1.2
				C91.2,35.9,91.8,36.3,92.5,36.3z"/>
			<path class="st0" d="M96.2,31.6h1.3v5.5h-1.3V31.6z"/>
			<path class="st0" d="M103.9,35.9c-0.4,1-1.3,1.4-2.5,1.4c-1.6,0-2.7-0.7-2.7-2.2c0-1.5,1.1-2.2,2.7-2.2c1.8,0,2.6,0.9,2.6,2.4
				v0.1H100v0c0,0.4,0.4,1,1.3,1c0.5,0,0.9-0.2,1.1-0.5H103.9z M102.6,34.7L102.6,34.7c0-0.2-0.3-0.9-1.3-0.9
				c-1.1,0-1.3,0.8-1.3,0.9v0H102.6z"/>
		</g>
	</g>
</g>
</svg>
