<?xml version="1.0" encoding="utf-8"?>
<!-- Generator: Adobe Illustrator 22.0.0, SVG Export Plug-In . SVG Version: 6.00 Build 0)  -->
<svg version="1.1" id="Capa_1" xmlns="http://www.w3.org/2000/svg" xmlns:xlink="http://www.w3.org/1999/xlink" x="0px" y="0px"
	 viewBox="0 0 92 24" style="enable-background:new 0 0 92 24;" xml:space="preserve">
<style type="text/css">
	.st0{fill:#FFFFFF;}
</style>
<g>
	<g>
		<g>
			<g>
				<path class="st0" d="M88.9,0.3c1.1,0,2.1,0.8,2.1,1.9c0,1.1-0.9,1.9-2.1,1.9c-1.2,0-2.1-0.9-2.1-1.9C86.9,1.1,87.8,0.3,88.9,0.3
					L88.9,0.3z M88.9,0.6c-0.9,0-1.5,0.7-1.5,1.5c0,0.9,0.7,1.5,1.6,1.5c0.9,0,1.5-0.7,1.5-1.5C90.5,1.3,89.8,0.6,88.9,0.6L88.9,0.6
					z M88.6,3.2h-0.5V1.3c0.2,0,0.4-0.1,0.8-0.1c0.4,0,0.5,0.1,0.7,0.2c0.1,0.1,0.2,0.2,0.2,0.4c0,0.2-0.2,0.4-0.4,0.5v0
					c0.2,0.1,0.3,0.2,0.4,0.5c0.1,0.3,0.1,0.4,0.1,0.5h-0.5c-0.1-0.1-0.1-0.2-0.2-0.5c0-0.2-0.2-0.3-0.4-0.3h-0.2V3.2z M88.6,2.1
					h0.2c0.3,0,0.5-0.1,0.5-0.3c0-0.2-0.1-0.3-0.4-0.3c-0.1,0-0.2,0-0.3,0V2.1z"/>
			</g>
			<g>
				<polygon class="st0" points="21.1,4.9 13.2,4.9 6.9,12 6.9,4.9 1,4.9 1,23.7 6.9,23.7 6.9,19.1 10,16 14.1,23.7 21.4,23.7 
					14.1,12 				"/>
				<path class="st0" d="M46.8,20.3c-0.4,0-0.7-0.1-0.9-0.4c-0.1-0.2-0.2-0.6-0.2-1.2v-4.8h2.9v-3.8h-2.9V4.9l-5.3,2.7v2.5h-2v3.8h2
					v4.8c0,1.5,0.1,2.6,0.4,3.3c0.3,0.7,0.8,1.2,1.4,1.5c0.6,0.3,1.6,0.5,2.9,0.5c1.1,0,2.4-0.1,3.7-0.4L48.4,20
					C47.7,20.2,47.2,20.3,46.8,20.3z"/>
				<path class="st0" d="M37.1,20.8v-6c0-0.6-0.1-1.3-0.4-2c-0.3-0.7-0.6-1.3-1.1-1.6c-0.6-0.6-1.4-0.9-2.4-1.1
					c-0.9-0.2-2.2-0.3-3.7-0.3h-0.1c-1,0-1.9,0.1-2.8,0.2c-0.9,0.1-1.5,0.4-2,0.6c-0.7,0.4-1.2,0.8-1.6,1.3
					c-0.4,0.5-0.6,1.2-0.8,2.1l5.1,0.5c0.2-0.6,0.5-1,0.8-1.2c0.3-0.2,0.8-0.3,1.4-0.4c0.2,0,0.4,0,0.6,0c0.7,0,1.2,0.1,1.4,0.4
					c0.3,0.3,0.4,0.7,0.4,1.3c-0.7,0.3-1.3,0.5-1.9,0.6c-0.1,0-0.3,0.1-0.5,0.1c-0.7,0.2-1.8,0.4-3.4,0.7c-1.7,0.3-2.8,0.8-3.4,1.5
					c-0.6,0.7-0.9,1.5-0.9,2.6c0,1.1,0.4,2,1.3,2.8c0.9,0.8,2.1,1.1,3.8,1.1c1,0,1.9-0.1,2.7-0.4c0.2-0.1,0.4-0.1,0.6-0.2
					c0.7-0.3,1.4-0.7,2.1-1.4c0.1,0.4,0.1,0.7,0.2,0.9c0.1,0.2,0.2,0.5,0.4,0.8h5c-0.3-0.6-0.5-1-0.5-1.4
					C37.1,21.9,37.1,21.4,37.1,20.8z M31.9,18.1c0,0.6-0.1,1.2-0.3,1.6c-0.2,0.4-0.6,0.7-1.1,1c-0.3,0.2-0.7,0.3-1,0.4
					c-0.2,0-0.4,0.1-0.7,0.1c-0.6,0-1-0.1-1.3-0.4c-0.3-0.3-0.4-0.6-0.4-1c0-0.4,0.1-0.7,0.4-1c0.3-0.3,0.9-0.5,2-0.8
					c0,0,0.1,0,0.1,0c0.8-0.2,1.6-0.4,2.3-0.7V18.1z"/>
				<g>
					<rect x="80" y="10.1" class="st0" width="5.3" height="13.6"/>
					<rect x="80" y="4.9" class="st0" width="5.3" height="3.6"/>
				</g>
				<path class="st0" d="M74.4,10.3c-0.5,0.4-1,1-1.5,2v-2.2h-5v13.6h5.4v-4.6c0-2.2,0.3-3.7,0.8-4.5c0.4-0.6,0.9-0.8,1.6-0.8
					c0.4,0,0.9,0.1,1.5,0.4l1.7-3.7c-0.9-0.5-1.8-0.7-2.6-0.7C75.5,9.8,74.9,9.9,74.4,10.3z"/>
				<path class="st0" d="M57.9,9.8L57.9,9.8c-2.5,0-4.4,0.7-5.8,2c-1.4,1.3-2.1,3.1-2.1,5.1c0,2.2,0.8,4,2.5,5.4
					c1.4,1.1,3.2,1.7,5.4,1.7h0c2.5,0,4.5-0.7,5.9-2c1.4-1.3,2.1-3.1,2.1-5.2c0-1.9-0.6-3.4-1.7-4.7C62.7,10.6,60.6,9.8,57.9,9.8z
					 M59.8,19.6c-0.5,0.6-1.1,0.9-1.9,0.9h0c-0.8,0-1.4-0.3-1.9-0.9c-0.5-0.6-0.8-1.5-0.8-2.7c0-1.2,0.3-2.1,0.8-2.7
					c0.5-0.6,1.1-0.9,1.9-0.9h0c0.7,0,1.4,0.3,1.9,0.9c0.5,0.6,0.7,1.5,0.7,2.6C60.5,18.1,60.3,19,59.8,19.6z"/>
			</g>
			<path class="st0" d="M46,4.9c0,0,6.5-3.5,16.7-0.5c10.2,3,16.2-0.5,16.2-0.5S61.2-3.9,46,4.9z M62.7,3.7
				c-1.2-0.3-2.3-0.7-3.3-1.1c2.2,0.5,4.5,0.8,6.8,1c4,0.3,7.6,0.2,10.5-0.3C73.5,4.9,68.2,5.1,62.7,3.7z"/>
		</g>
	</g>
</g>
</svg>
